<svg width="32" height="34" viewBox="0 0 32 34" fill="none" xmlns="http://www.w3.org/2000/svg">
<path d="M25.6933 7.62758C23.92 6.7724 22 6.15171 20 5.79309C19.9825 5.79251 19.965 5.79592 19.9489 5.80307C19.9328 5.81022 19.9183 5.82094 19.9067 5.83447C19.6667 6.28965 19.3867 6.88275 19.2 7.33792C17.0787 7.00689 14.9213 7.00689 12.8 7.33792C12.6133 6.86896 12.3333 6.28965 12.08 5.83447C12.0667 5.80689 12.0267 5.79309 11.9867 5.79309C9.98666 6.15171 8.07999 6.7724 6.29333 7.62758C6.27999 7.62758 6.26666 7.64137 6.25333 7.65516C2.62666 13.269 1.62666 18.731 2.11999 24.1379C2.11999 24.1655 2.13333 24.1931 2.15999 24.2069C4.55999 26.0276 6.86666 27.131 9.14666 27.8621C9.18666 27.8759 9.22666 27.8621 9.23999 27.8345C9.77333 27.0759 10.2533 26.2759 10.6667 25.4345C10.6933 25.3793 10.6667 25.3241 10.6133 25.3103C9.85333 25.0069 9.13333 24.6483 8.42666 24.2345C8.37333 24.2069 8.37333 24.1241 8.41333 24.0827C8.55999 23.9724 8.70666 23.8483 8.85333 23.7379C8.87999 23.7103 8.91999 23.7103 8.94666 23.7241C13.5333 25.8896 18.48 25.8896 23.0133 23.7241C23.04 23.7103 23.08 23.7103 23.1067 23.7379C23.2533 23.8621 23.4 23.9724 23.5467 24.0965C23.6 24.1379 23.6 24.2207 23.5333 24.2483C22.84 24.6758 22.1067 25.0207 21.3467 25.3241C21.2933 25.3379 21.28 25.4069 21.2933 25.4483C21.72 26.2896 22.2 27.0896 22.72 27.8483C22.76 27.8621 22.8 27.8759 22.84 27.8621C25.1333 27.131 27.44 26.0276 29.84 24.2069C29.8667 24.1931 29.88 24.1655 29.88 24.1379C30.4667 17.8896 28.9067 12.469 25.7467 7.65516C25.7333 7.64137 25.72 7.62758 25.6933 7.62758ZM11.36 20.8414C9.98666 20.8414 8.83999 19.531 8.83999 17.9172C8.83999 16.3034 9.95999 14.9931 11.36 14.9931C12.7733 14.9931 13.8933 16.3172 13.88 17.9172C13.88 19.531 12.76 20.8414 11.36 20.8414ZM20.6533 20.8414C19.28 20.8414 18.1333 19.531 18.1333 17.9172C18.1333 16.3034 19.2533 14.9931 20.6533 14.9931C22.0667 14.9931 23.1867 16.3172 23.1733 17.9172C23.1733 19.531 22.0667 20.8414 20.6533 20.8414Z" fill="white"/>
</svg>
