<svg width="32" height="34" viewBox="0 0 32 34" fill="none" xmlns="http://www.w3.org/2000/svg">
<path d="M4.8 12.6897H27.2M4.8 20.9655H27.2M4 16.8276C4 18.4578 4.31039 20.0721 4.91345 21.5782C5.5165 23.0843 6.40042 24.4528 7.51472 25.6055C8.62902 26.7582 9.95189 27.6726 11.4078 28.2965C12.8637 28.9203 14.4241 29.2414 16 29.2414C17.5759 29.2414 19.1363 28.9203 20.5922 28.2965C22.0481 27.6726 23.371 26.7582 24.4853 25.6055C25.5996 24.4528 26.4835 23.0843 27.0866 21.5782C27.6896 20.0721 28 18.4578 28 16.8276C28 13.5353 26.7357 10.3778 24.4853 8.04973C22.2348 5.7217 19.1826 4.41382 16 4.41382C12.8174 4.41382 9.76516 5.7217 7.51472 8.04973C5.26428 10.3778 4 13.5353 4 16.8276Z" stroke="white" stroke-width="2" stroke-linecap="round" stroke-linejoin="round"/>
<path d="M15.3333 4.41382C13.0871 8.13742 11.8962 12.4385 11.8962 16.8276C11.8962 21.2168 13.0871 25.5178 15.3333 29.2414M16.6666 4.41382C18.9128 8.13742 20.1037 12.4385 20.1037 16.8276C20.1037 21.2168 18.9128 25.5178 16.6666 29.2414" stroke="white" stroke-width="2" stroke-linecap="round" stroke-linejoin="round"/>
</svg>
